<mxfile modified="2021-11-22T16:04:35.291Z" host="app.diagrams.net" agent="5.0 (Windows NT 10.0; Win64; x64) AppleWebKit/537.36 (KHTML, like Gecko) Chrome/96.0.4664.45 Safari/537.36" etag="bJyKHKJ1ZIWPFHBdb84n" version="15.8.3" type="github">
  <diagram id="Ht1M8jgEwFfnCIfOTk4-" name="Page-1">
    <mxGraphModel dx="1955" dy="2103" grid="1" gridSize="10" guides="1" tooltips="1" connect="1" arrows="1" fold="1" page="1" pageScale="1" pageWidth="1654" pageHeight="1169" math="0" shadow="0">
      <root>
        <mxCell id="0" />
        <mxCell id="1" parent="0" />
        <mxCell id="_Aoh5FXv3OEPfKDgOaNU-10" value="" style="rounded=0;whiteSpace=wrap;html=1;dashed=1;dashPattern=1 2;" vertex="1" parent="1">
          <mxGeometry x="1390" y="-863.75" width="250" height="140" as="geometry" />
        </mxCell>
        <mxCell id="Dyxc_L6sVQ1kKqKvP9iK-9" style="edgeStyle=orthogonalEdgeStyle;rounded=0;orthogonalLoop=1;jettySize=auto;html=1;exitX=1;exitY=0.5;exitDx=0;exitDy=0;entryX=0;entryY=0.5;entryDx=0;entryDy=0;entryPerimeter=0;" parent="1" source="Dyxc_L6sVQ1kKqKvP9iK-8" target="Dyxc_L6sVQ1kKqKvP9iK-6" edge="1">
          <mxGeometry relative="1" as="geometry" />
        </mxCell>
        <mxCell id="Dyxc_L6sVQ1kKqKvP9iK-27" value="++" style="rounded=0;whiteSpace=wrap;html=1;" parent="1" vertex="1">
          <mxGeometry x="502.5" y="-1050" width="535" height="395" as="geometry" />
        </mxCell>
        <mxCell id="Dyxc_L6sVQ1kKqKvP9iK-8" value="" style="rounded=0;whiteSpace=wrap;html=1;" parent="1" vertex="1">
          <mxGeometry x="267.5" y="-998.5" width="110" height="330" as="geometry" />
        </mxCell>
        <mxCell id="Dyxc_L6sVQ1kKqKvP9iK-2" value="" style="shape=image;html=1;verticalAlign=top;verticalLabelPosition=bottom;labelBackgroundColor=#ffffff;imageAspect=0;aspect=fixed;image=https://cdn0.iconfinder.com/data/icons/long-shadow-web-icons/512/angular-128.png" parent="1" vertex="1">
          <mxGeometry x="292.5" y="-942" width="60" height="60" as="geometry" />
        </mxCell>
        <mxCell id="Dyxc_L6sVQ1kKqKvP9iK-3" value="" style="shape=image;html=1;verticalAlign=top;verticalLabelPosition=bottom;labelBackgroundColor=#ffffff;imageAspect=0;aspect=fixed;image=https://cdn0.iconfinder.com/data/icons/long-shadow-web-icons/512/css-128.png" parent="1" vertex="1">
          <mxGeometry x="292.5" y="-862" width="60" height="60" as="geometry" />
        </mxCell>
        <mxCell id="Dyxc_L6sVQ1kKqKvP9iK-4" value="" style="sketch=0;points=[[0,0,0],[0.25,0,0],[0.5,0,0],[0.75,0,0],[1,0,0],[0,1,0],[0.25,1,0],[0.5,1,0],[0.75,1,0],[1,1,0],[0,0.25,0],[0,0.5,0],[0,0.75,0],[1,0.25,0],[1,0.5,0],[1,0.75,0]];outlineConnect=0;fontColor=#232F3E;gradientColor=#F78E04;gradientDirection=north;fillColor=#D05C17;strokeColor=#ffffff;dashed=0;verticalLabelPosition=bottom;verticalAlign=top;align=center;html=1;fontSize=12;fontStyle=0;aspect=fixed;shape=mxgraph.aws4.resourceIcon;resIcon=mxgraph.aws4.auto_scaling2;" parent="1" vertex="1">
          <mxGeometry x="292.5" y="-772" width="60" height="60" as="geometry" />
        </mxCell>
        <mxCell id="Dyxc_L6sVQ1kKqKvP9iK-15" style="edgeStyle=orthogonalEdgeStyle;rounded=0;orthogonalLoop=1;jettySize=auto;html=1;exitX=1;exitY=0.5;exitDx=0;exitDy=0;exitPerimeter=0;entryX=0;entryY=0.5;entryDx=0;entryDy=0;" parent="1" source="Dyxc_L6sVQ1kKqKvP9iK-6" target="Dyxc_L6sVQ1kKqKvP9iK-14" edge="1">
          <mxGeometry relative="1" as="geometry" />
        </mxCell>
        <mxCell id="Dyxc_L6sVQ1kKqKvP9iK-28" style="edgeStyle=orthogonalEdgeStyle;rounded=0;orthogonalLoop=1;jettySize=auto;html=1;exitX=1;exitY=0.5;exitDx=0;exitDy=0;entryX=0;entryY=0.5;entryDx=0;entryDy=0;entryPerimeter=0;" parent="1" source="Dyxc_L6sVQ1kKqKvP9iK-14" target="Dyxc_L6sVQ1kKqKvP9iK-16" edge="1">
          <mxGeometry relative="1" as="geometry" />
        </mxCell>
        <mxCell id="Dyxc_L6sVQ1kKqKvP9iK-14" value="" style="rounded=0;whiteSpace=wrap;html=1;dashed=1;dashPattern=1 2;" parent="1" vertex="1">
          <mxGeometry x="522.5" y="-944.75" width="120" height="222.5" as="geometry" />
        </mxCell>
        <mxCell id="Dyxc_L6sVQ1kKqKvP9iK-6" value="" style="sketch=0;points=[[0,0,0],[0.25,0,0],[0.5,0,0],[0.75,0,0],[1,0,0],[0,1,0],[0.25,1,0],[0.5,1,0],[0.75,1,0],[1,1,0],[0,0.25,0],[0,0.5,0],[0,0.75,0],[1,0.25,0],[1,0.5,0],[1,0.75,0]];outlineConnect=0;fontColor=#232F3E;gradientColor=#F78E04;gradientDirection=north;fillColor=#D05C17;strokeColor=#ffffff;dashed=0;verticalLabelPosition=bottom;verticalAlign=top;align=center;html=1;fontSize=12;fontStyle=0;aspect=fixed;shape=mxgraph.aws4.resourceIcon;resIcon=mxgraph.aws4.elastic_load_balancing;" parent="1" vertex="1">
          <mxGeometry x="417.5" y="-863.75" width="60.5" height="60.5" as="geometry" />
        </mxCell>
        <mxCell id="Dyxc_L6sVQ1kKqKvP9iK-11" value="Auto Scaling" style="text;html=1;strokeColor=none;fillColor=none;align=center;verticalAlign=middle;whiteSpace=wrap;rounded=0;" parent="1" vertex="1">
          <mxGeometry x="287.5" y="-712" width="70" height="30" as="geometry" />
        </mxCell>
        <mxCell id="Dyxc_L6sVQ1kKqKvP9iK-10" value="" style="shape=image;html=1;verticalAlign=top;verticalLabelPosition=bottom;labelBackgroundColor=#ffffff;imageAspect=0;aspect=fixed;image=https://cdn0.iconfinder.com/data/icons/long-shadow-web-icons/512/nodejs-128.png;rounded=0;" parent="1" vertex="1">
          <mxGeometry x="550" y="-902" width="65" height="65" as="geometry" />
        </mxCell>
        <mxCell id="Dyxc_L6sVQ1kKqKvP9iK-12" value="" style="sketch=0;points=[[0,0,0],[0.25,0,0],[0.5,0,0],[0.75,0,0],[1,0,0],[0,1,0],[0.25,1,0],[0.5,1,0],[0.75,1,0],[1,1,0],[0,0.25,0],[0,0.5,0],[0,0.75,0],[1,0.25,0],[1,0.5,0],[1,0.75,0]];outlineConnect=0;fontColor=#232F3E;gradientColor=#F78E04;gradientDirection=north;fillColor=#D05C17;strokeColor=#ffffff;dashed=0;verticalLabelPosition=bottom;verticalAlign=top;align=center;html=1;fontSize=12;fontStyle=0;aspect=fixed;shape=mxgraph.aws4.resourceIcon;resIcon=mxgraph.aws4.auto_scaling2;" parent="1" vertex="1">
          <mxGeometry x="552.5" y="-822" width="60" height="60" as="geometry" />
        </mxCell>
        <mxCell id="Dyxc_L6sVQ1kKqKvP9iK-25" style="edgeStyle=orthogonalEdgeStyle;rounded=0;orthogonalLoop=1;jettySize=auto;html=1;exitX=0.75;exitY=0;exitDx=0;exitDy=0;exitPerimeter=0;entryX=0;entryY=0.549;entryDx=0;entryDy=0;entryPerimeter=0;" parent="1" source="Dyxc_L6sVQ1kKqKvP9iK-16" target="Dyxc_L6sVQ1kKqKvP9iK-17" edge="1">
          <mxGeometry relative="1" as="geometry" />
        </mxCell>
        <mxCell id="Dyxc_L6sVQ1kKqKvP9iK-26" style="edgeStyle=orthogonalEdgeStyle;rounded=0;orthogonalLoop=1;jettySize=auto;html=1;exitX=0.75;exitY=1;exitDx=0;exitDy=0;exitPerimeter=0;entryX=0;entryY=0.5;entryDx=0;entryDy=0;" parent="1" source="Dyxc_L6sVQ1kKqKvP9iK-16" target="Dyxc_L6sVQ1kKqKvP9iK-21" edge="1">
          <mxGeometry relative="1" as="geometry" />
        </mxCell>
        <mxCell id="Dyxc_L6sVQ1kKqKvP9iK-13" value="Auto Scaling" style="text;html=1;strokeColor=none;fillColor=none;align=center;verticalAlign=middle;whiteSpace=wrap;rounded=0;" parent="1" vertex="1">
          <mxGeometry x="547.5" y="-762" width="70" height="30" as="geometry" />
        </mxCell>
        <mxCell id="Dyxc_L6sVQ1kKqKvP9iK-32" style="edgeStyle=orthogonalEdgeStyle;rounded=0;orthogonalLoop=1;jettySize=auto;html=1;exitX=1;exitY=0.5;exitDx=0;exitDy=0;entryX=0.5;entryY=0;entryDx=0;entryDy=0;entryPerimeter=0;dashed=1;dashPattern=1 2;" parent="1" source="Dyxc_L6sVQ1kKqKvP9iK-17" target="Dyxc_L6sVQ1kKqKvP9iK-30" edge="1">
          <mxGeometry relative="1" as="geometry" />
        </mxCell>
        <mxCell id="Dyxc_L6sVQ1kKqKvP9iK-17" value="" style="rounded=0;whiteSpace=wrap;html=1;dashed=1;dashPattern=1 2;" parent="1" vertex="1">
          <mxGeometry x="802.5" y="-1018" width="200" height="140" as="geometry" />
        </mxCell>
        <mxCell id="Dyxc_L6sVQ1kKqKvP9iK-16" value="" style="sketch=0;points=[[0,0,0],[0.25,0,0],[0.5,0,0],[0.75,0,0],[1,0,0],[0,1,0],[0.25,1,0],[0.5,1,0],[0.75,1,0],[1,1,0],[0,0.25,0],[0,0.5,0],[0,0.75,0],[1,0.25,0],[1,0.5,0],[1,0.75,0]];outlineConnect=0;fontColor=#232F3E;gradientColor=#F78E04;gradientDirection=north;fillColor=#D05C17;strokeColor=#ffffff;dashed=0;verticalLabelPosition=bottom;verticalAlign=top;align=center;html=1;fontSize=12;fontStyle=0;aspect=fixed;shape=mxgraph.aws4.resourceIcon;resIcon=mxgraph.aws4.elastic_load_balancing;" parent="1" vertex="1">
          <mxGeometry x="687.5" y="-866" width="60.5" height="60.5" as="geometry" />
        </mxCell>
        <mxCell id="Dyxc_L6sVQ1kKqKvP9iK-18" value="" style="shape=image;html=1;verticalAlign=top;verticalLabelPosition=bottom;labelBackgroundColor=#ffffff;imageAspect=0;aspect=fixed;image=https://cdn0.iconfinder.com/data/icons/long-shadow-web-icons/512/nodejs-128.png;rounded=0;" parent="1" vertex="1">
          <mxGeometry x="812.5" y="-1008" width="65" height="65" as="geometry" />
        </mxCell>
        <mxCell id="Dyxc_L6sVQ1kKqKvP9iK-20" value="Auto Scaling" style="text;html=1;strokeColor=none;fillColor=none;align=center;verticalAlign=middle;whiteSpace=wrap;rounded=0;" parent="1" vertex="1">
          <mxGeometry x="912.5" y="-913" width="70" height="30" as="geometry" />
        </mxCell>
        <mxCell id="Dyxc_L6sVQ1kKqKvP9iK-19" value="" style="sketch=0;points=[[0,0,0],[0.25,0,0],[0.5,0,0],[0.75,0,0],[1,0,0],[0,1,0],[0.25,1,0],[0.5,1,0],[0.75,1,0],[1,1,0],[0,0.25,0],[0,0.5,0],[0,0.75,0],[1,0.25,0],[1,0.5,0],[1,0.75,0]];outlineConnect=0;fontColor=#232F3E;gradientColor=#F78E04;gradientDirection=north;fillColor=#D05C17;strokeColor=#ffffff;dashed=0;verticalLabelPosition=bottom;verticalAlign=top;align=center;html=1;fontSize=12;fontStyle=0;aspect=fixed;shape=mxgraph.aws4.resourceIcon;resIcon=mxgraph.aws4.auto_scaling2;" parent="1" vertex="1">
          <mxGeometry x="917.5" y="-968" width="60" height="60" as="geometry" />
        </mxCell>
        <mxCell id="Dyxc_L6sVQ1kKqKvP9iK-33" style="edgeStyle=orthogonalEdgeStyle;rounded=0;orthogonalLoop=1;jettySize=auto;html=1;exitX=1;exitY=0.5;exitDx=0;exitDy=0;entryX=0.5;entryY=1;entryDx=0;entryDy=0;entryPerimeter=0;dashed=1;dashPattern=1 2;" parent="1" source="Dyxc_L6sVQ1kKqKvP9iK-21" target="Dyxc_L6sVQ1kKqKvP9iK-30" edge="1">
          <mxGeometry relative="1" as="geometry" />
        </mxCell>
        <mxCell id="Dyxc_L6sVQ1kKqKvP9iK-21" value="" style="rounded=0;whiteSpace=wrap;html=1;dashed=1;dashPattern=1 2;" parent="1" vertex="1">
          <mxGeometry x="802.5" y="-813" width="200" height="140" as="geometry" />
        </mxCell>
        <mxCell id="Dyxc_L6sVQ1kKqKvP9iK-22" value="" style="shape=image;html=1;verticalAlign=top;verticalLabelPosition=bottom;labelBackgroundColor=#ffffff;imageAspect=0;aspect=fixed;image=https://cdn0.iconfinder.com/data/icons/long-shadow-web-icons/512/nodejs-128.png;rounded=0;" parent="1" vertex="1">
          <mxGeometry x="812.5" y="-803" width="65" height="65" as="geometry" />
        </mxCell>
        <mxCell id="Dyxc_L6sVQ1kKqKvP9iK-23" value="" style="sketch=0;points=[[0,0,0],[0.25,0,0],[0.5,0,0],[0.75,0,0],[1,0,0],[0,1,0],[0.25,1,0],[0.5,1,0],[0.75,1,0],[1,1,0],[0,0.25,0],[0,0.5,0],[0,0.75,0],[1,0.25,0],[1,0.5,0],[1,0.75,0]];outlineConnect=0;fontColor=#232F3E;gradientColor=#F78E04;gradientDirection=north;fillColor=#D05C17;strokeColor=#ffffff;dashed=0;verticalLabelPosition=bottom;verticalAlign=top;align=center;html=1;fontSize=12;fontStyle=0;aspect=fixed;shape=mxgraph.aws4.resourceIcon;resIcon=mxgraph.aws4.auto_scaling2;" parent="1" vertex="1">
          <mxGeometry x="917.5" y="-763" width="60" height="60" as="geometry" />
        </mxCell>
        <mxCell id="Dyxc_L6sVQ1kKqKvP9iK-24" value="Auto Scaling" style="text;html=1;strokeColor=none;fillColor=none;align=center;verticalAlign=middle;whiteSpace=wrap;rounded=0;" parent="1" vertex="1">
          <mxGeometry x="912.5" y="-708" width="70" height="30" as="geometry" />
        </mxCell>
        <mxCell id="Dyxc_L6sVQ1kKqKvP9iK-39" style="edgeStyle=orthogonalEdgeStyle;rounded=0;orthogonalLoop=1;jettySize=auto;html=1;exitX=0.5;exitY=0;exitDx=0;exitDy=0;exitPerimeter=0;entryX=0;entryY=0.5;entryDx=0;entryDy=0;dashed=1;dashPattern=1 2;" parent="1" source="Dyxc_L6sVQ1kKqKvP9iK-29" target="Dyxc_L6sVQ1kKqKvP9iK-37" edge="1">
          <mxGeometry relative="1" as="geometry" />
        </mxCell>
        <mxCell id="Dyxc_L6sVQ1kKqKvP9iK-40" style="edgeStyle=orthogonalEdgeStyle;rounded=0;orthogonalLoop=1;jettySize=auto;html=1;dashed=1;dashPattern=1 2;entryX=-0.006;entryY=0.556;entryDx=0;entryDy=0;entryPerimeter=0;" parent="1" source="Dyxc_L6sVQ1kKqKvP9iK-29" target="_Aoh5FXv3OEPfKDgOaNU-10" edge="1">
          <mxGeometry relative="1" as="geometry">
            <Array as="points">
              <mxPoint x="1327" y="-784" />
            </Array>
          </mxGeometry>
        </mxCell>
        <mxCell id="Dyxc_L6sVQ1kKqKvP9iK-29" value="" style="sketch=0;points=[[0,0,0],[0.25,0,0],[0.5,0,0],[0.75,0,0],[1,0,0],[0,1,0],[0.25,1,0],[0.5,1,0],[0.75,1,0],[1,1,0],[0,0.25,0],[0,0.5,0],[0,0.75,0],[1,0.25,0],[1,0.5,0],[1,0.75,0]];outlineConnect=0;fontColor=#232F3E;gradientColor=#945DF2;gradientDirection=north;fillColor=#5A30B5;strokeColor=#ffffff;dashed=0;verticalLabelPosition=bottom;verticalAlign=top;align=center;html=1;fontSize=12;fontStyle=0;aspect=fixed;shape=mxgraph.aws4.resourceIcon;resIcon=mxgraph.aws4.managed_streaming_for_kafka;rounded=0;dashPattern=1 2;" parent="1" vertex="1">
          <mxGeometry x="1270" y="-883.5" width="61.5" height="61.5" as="geometry" />
        </mxCell>
        <mxCell id="Dyxc_L6sVQ1kKqKvP9iK-35" style="edgeStyle=orthogonalEdgeStyle;rounded=0;orthogonalLoop=1;jettySize=auto;html=1;exitX=1;exitY=0.5;exitDx=0;exitDy=0;exitPerimeter=0;entryX=0;entryY=0.5;entryDx=0;entryDy=0;entryPerimeter=0;dashed=1;dashPattern=1 2;" parent="1" source="Dyxc_L6sVQ1kKqKvP9iK-30" target="Dyxc_L6sVQ1kKqKvP9iK-34" edge="1">
          <mxGeometry relative="1" as="geometry" />
        </mxCell>
        <mxCell id="Dyxc_L6sVQ1kKqKvP9iK-30" value="" style="sketch=0;points=[[0,0,0],[0.25,0,0],[0.5,0,0],[0.75,0,0],[1,0,0],[0,1,0],[0.25,1,0],[0.5,1,0],[0.75,1,0],[1,1,0],[0,0.25,0],[0,0.5,0],[0,0.75,0],[1,0.25,0],[1,0.5,0],[1,0.75,0]];outlineConnect=0;fontColor=#232F3E;gradientColor=#945DF2;gradientDirection=north;fillColor=#5A30B5;strokeColor=#ffffff;dashed=0;verticalLabelPosition=bottom;verticalAlign=top;align=center;html=1;fontSize=12;fontStyle=0;aspect=fixed;shape=mxgraph.aws4.resourceIcon;resIcon=mxgraph.aws4.api_gateway;rounded=0;dashPattern=1 2;" parent="1" vertex="1">
          <mxGeometry x="1047.5" y="-891.5" width="78" height="78" as="geometry" />
        </mxCell>
        <mxCell id="Dyxc_L6sVQ1kKqKvP9iK-38" style="edgeStyle=orthogonalEdgeStyle;rounded=0;orthogonalLoop=1;jettySize=auto;html=1;exitX=1;exitY=0.5;exitDx=0;exitDy=0;exitPerimeter=0;entryX=0;entryY=0.5;entryDx=0;entryDy=0;entryPerimeter=0;dashed=1;dashPattern=1 2;" parent="1" source="Dyxc_L6sVQ1kKqKvP9iK-34" target="Dyxc_L6sVQ1kKqKvP9iK-29" edge="1">
          <mxGeometry relative="1" as="geometry" />
        </mxCell>
        <mxCell id="Dyxc_L6sVQ1kKqKvP9iK-34" value="" style="outlineConnect=0;dashed=0;verticalLabelPosition=bottom;verticalAlign=top;align=center;html=1;shape=mxgraph.aws3.lambda_function;fillColor=#F58534;gradientColor=none;rounded=0;dashPattern=1 2;" parent="1" vertex="1">
          <mxGeometry x="1167.5" y="-888.5" width="69" height="72" as="geometry" />
        </mxCell>
        <mxCell id="Dyxc_L6sVQ1kKqKvP9iK-41" style="edgeStyle=orthogonalEdgeStyle;rounded=0;orthogonalLoop=1;jettySize=auto;html=1;exitX=0.5;exitY=1;exitDx=0;exitDy=0;dashed=1;dashPattern=1 2;" parent="1" source="Dyxc_L6sVQ1kKqKvP9iK-37" edge="1">
          <mxGeometry relative="1" as="geometry">
            <mxPoint x="1485" y="-870" as="targetPoint" />
          </mxGeometry>
        </mxCell>
        <UserObject label="" lucidchartObjectId="ClKtyy_eUIUr" id="Dyxc_L6sVQ1kKqKvP9iK-37">
          <mxCell style="html=1;overflow=block;blockSpacing=1;whiteSpace=wrap;shape=image;whiteSpace=wrap;fontSize=13;spacing=3.8;strokeColor=none;strokeOpacity=100;strokeWidth=0;image=https://images.lucid.app/images/5b973628-9828-4e17-991e-5c9da4e54e64/content;imageAspect=0;" parent="1" vertex="1">
            <mxGeometry x="1417.5" y="-1080" width="135" height="106" as="geometry" />
          </mxCell>
        </UserObject>
        <mxCell id="_Aoh5FXv3OEPfKDgOaNU-6" style="edgeStyle=orthogonalEdgeStyle;rounded=0;orthogonalLoop=1;jettySize=auto;html=1;exitX=1;exitY=0.5;exitDx=0;exitDy=0;exitPerimeter=0;entryX=0;entryY=0.444;entryDx=0;entryDy=0;entryPerimeter=0;" edge="1" parent="1" source="_Aoh5FXv3OEPfKDgOaNU-1" target="Dyxc_L6sVQ1kKqKvP9iK-8">
          <mxGeometry relative="1" as="geometry" />
        </mxCell>
        <mxCell id="Dyxc_L6sVQ1kKqKvP9iK-36" value="" style="sketch=0;points=[[0,0,0],[0.25,0,0],[0.5,0,0],[0.75,0,0],[1,0,0],[0,1,0],[0.25,1,0],[0.5,1,0],[0.75,1,0],[1,1,0],[0,0.25,0],[0,0.5,0],[0,0.75,0],[1,0.25,0],[1,0.5,0],[1,0.75,0]];outlineConnect=0;fontColor=#232F3E;gradientColor=#4D72F3;gradientDirection=north;fillColor=#3334B9;strokeColor=#ffffff;dashed=0;verticalLabelPosition=bottom;verticalAlign=top;align=center;html=1;fontSize=12;fontStyle=0;aspect=fixed;shape=mxgraph.aws4.resourceIcon;resIcon=mxgraph.aws4.dynamodb;rounded=0;dashPattern=1 2;" parent="1" vertex="1">
          <mxGeometry x="1552.5" y="-824.5" width="78" height="78" as="geometry" />
        </mxCell>
        <mxCell id="_Aoh5FXv3OEPfKDgOaNU-1" value="" style="outlineConnect=0;dashed=0;verticalLabelPosition=bottom;verticalAlign=top;align=center;html=1;shape=mxgraph.aws3.route_53;fillColor=#F58536;gradientColor=none;" vertex="1" parent="1">
          <mxGeometry x="97.5" y="-895.25" width="70.5" height="85.5" as="geometry" />
        </mxCell>
        <mxCell id="_Aoh5FXv3OEPfKDgOaNU-4" style="edgeStyle=orthogonalEdgeStyle;rounded=0;orthogonalLoop=1;jettySize=auto;html=1;" edge="1" parent="1" source="_Aoh5FXv3OEPfKDgOaNU-2" target="_Aoh5FXv3OEPfKDgOaNU-1">
          <mxGeometry relative="1" as="geometry" />
        </mxCell>
        <mxCell id="_Aoh5FXv3OEPfKDgOaNU-2" value="" style="verticalLabelPosition=bottom;html=1;verticalAlign=top;align=center;strokeColor=none;fillColor=#00BEF2;shape=mxgraph.azure.mobile;pointerEvents=1;" vertex="1" parent="1">
          <mxGeometry x="27.5" y="-1048.5" width="35" height="50" as="geometry" />
        </mxCell>
        <mxCell id="_Aoh5FXv3OEPfKDgOaNU-5" style="edgeStyle=orthogonalEdgeStyle;rounded=0;orthogonalLoop=1;jettySize=auto;html=1;exitX=1;exitY=0.5;exitDx=0;exitDy=0;exitPerimeter=0;entryX=0.5;entryY=1;entryDx=0;entryDy=0;entryPerimeter=0;" edge="1" parent="1" source="_Aoh5FXv3OEPfKDgOaNU-3" target="_Aoh5FXv3OEPfKDgOaNU-1">
          <mxGeometry relative="1" as="geometry" />
        </mxCell>
        <mxCell id="_Aoh5FXv3OEPfKDgOaNU-3" value="" style="verticalLabelPosition=bottom;html=1;verticalAlign=top;align=center;strokeColor=none;fillColor=#00BEF2;shape=mxgraph.azure.computer;pointerEvents=1;" vertex="1" parent="1">
          <mxGeometry x="20" y="-757" width="50" height="45" as="geometry" />
        </mxCell>
        <mxCell id="_Aoh5FXv3OEPfKDgOaNU-9" style="edgeStyle=orthogonalEdgeStyle;rounded=0;orthogonalLoop=1;jettySize=auto;html=1;" edge="1" parent="1" source="_Aoh5FXv3OEPfKDgOaNU-7" target="Dyxc_L6sVQ1kKqKvP9iK-36">
          <mxGeometry relative="1" as="geometry" />
        </mxCell>
        <mxCell id="_Aoh5FXv3OEPfKDgOaNU-7" value="" style="shape=image;verticalLabelPosition=bottom;labelBackgroundColor=#ffffff;verticalAlign=top;aspect=fixed;imageAspect=0;image=https://2.bp.blogspot.com/-Z6UOgkPfGV8/Wv4U-1xGDEI/AAAAAAAAOC0/cS502Pkq2BUU-cvQ0IuauAF2B0br6h30wCLcBGAs/s1600/screen-shot-2014-10-25-at-14-29-50.png;" vertex="1" parent="1">
          <mxGeometry x="1410" y="-808" width="120.62" height="45" as="geometry" />
        </mxCell>
        <mxCell id="_Aoh5FXv3OEPfKDgOaNU-11" value="" style="rounded=0;whiteSpace=wrap;html=1;" vertex="1" parent="1">
          <mxGeometry x="48" y="-550" width="152" height="100" as="geometry" />
        </mxCell>
      </root>
    </mxGraphModel>
  </diagram>
</mxfile>
